<svg class="icon-fish-rating-empty" aria-label="Empty Fish Rating Icon" role="img" width="24" height="24" viewBox="0 0 24 24" fill="none" xmlns="http://www.w3.org/2000/svg">
  <path d="M21.0704 9.17127C20.2336 8.46409 19.3087 7.9337 18.2517 7.58011H18.2077H18.1636C17.9874 7.00553 17.7232 6.34254 17.4589 5.85635C17.1947 5.41436 16.8864 5.01657 16.5781 4.66298C16.446 4.53039 16.3138 4.39779 16.1377 4.26519C16.0496 4.1768 15.9174 4.0884 15.8294 4.0442C15.7413 4 15.6532 4 15.5211 4C15.433 4 15.3889 4 15.3449 4.0442L15.2128 4.1768C15.1687 4.30939 15.1247 4.44199 15.1247 4.57459C15.1247 4.79558 15.1687 5.01657 15.1687 5.28177C15.1687 5.54696 15.1247 5.81215 15.0366 6.03315C14.9485 6.20994 14.7723 6.38674 14.6402 6.56354C14.376 6.78453 14.0236 6.96133 13.7153 7.04972C13.5832 7.09392 13.363 7.09392 13.2309 7.13812C13.0547 7.18232 12.8345 7.13812 12.5702 7.22652C12.5262 7.22652 12.4821 7.27072 12.4821 7.31492C12.4381 7.35912 12.4381 7.40332 12.4381 7.44751V7.49171C12.1738 7.53591 12.0857 7.58011 11.9096 7.62431L11.8215 7.66851L11.7334 7.58011C11.5132 7.13812 11.1609 6.82873 10.7204 6.56354C10.324 6.29834 9.83957 6.16575 9.35511 6.16575C9.26702 6.16575 9.17894 6.16575 9.04681 6.20994C9.00277 6.20994 9.00277 6.20994 8.95872 6.25414H8.91468C8.91468 6.25414 8.87064 6.25414 8.87064 6.29834V6.38674L8.91468 6.43094C10.0157 7.13812 10.28 7.66851 10.28 7.9337C10.28 8.0221 10.236 8.0663 10.236 8.1547H10.1919C10.0598 8.19889 9.92766 8.19889 9.79553 8.19889H9.48723C9.44319 8.19889 9.44319 8.19889 9.39915 8.24309C9.35511 8.28729 9.31106 8.33149 9.31106 8.37569C9.26702 8.46409 9.22298 8.59669 9.17894 8.68508C9.13489 8.77348 9.09085 8.81768 9.04681 8.86188C9.04681 8.90608 9.00277 8.90608 9.00277 8.95028C8.95872 8.99447 8.91468 8.99448 8.87064 8.99448H8.65043C8.47426 8.99448 8.25404 8.95028 8.12192 8.95028H8.03383C8.03383 8.95028 7.98979 8.95028 7.98979 8.99448L7.94574 9.03867V9.08287C7.9017 9.21547 7.9017 9.34807 7.85766 9.48066C7.81362 9.65746 7.72553 9.79006 7.5934 9.87845C7.46128 9.92265 7.28511 9.96685 7.10894 9.96685H6.66851C6.66851 9.96685 6.62447 9.96685 6.62447 10.011C6.62447 10.0552 6.58043 10.0552 6.58043 10.0994C6.53638 10.1878 6.53638 10.3204 6.49234 10.453C6.49234 10.4972 6.4483 10.5856 6.4483 10.6298C6.4483 10.674 6.40426 10.674 6.40426 10.7182C6.22809 10.895 6.14 10.9392 6.09596 10.9834C6.09596 10.2762 5.61149 9.30387 4.99489 8.37569C4.33426 7.49171 3.4534 6.65193 2.6166 6.38674C2.52851 6.25414 2.39638 6.25414 2.3083 6.25414C2.26426 6.25414 2.22021 6.25414 2.17617 6.29834C2.13213 6.29834 2.13213 6.34254 2.13213 6.34254C2.13213 6.38674 2.08809 6.38674 2.08809 6.43094C2.08809 6.51934 2.17617 6.65193 2.26426 6.69613C2.48447 6.91713 2.74872 7.22652 2.92489 7.49171C3.4534 8.37569 3.7617 9.21547 3.89383 10.9392C3.89383 11.2928 3.93787 11.6022 4.02596 11.9558C4.11404 12.1326 4.20213 12.3094 4.24617 12.442C4.29021 12.5304 4.33426 12.6188 4.33426 12.7072C4.24617 12.9282 4.07 13.1934 4.02596 13.5912C4.02596 14.0331 3.98191 14.4751 3.84979 14.9171C3.49745 16.2873 2.88085 17.5691 2 18.6298C2.04404 18.674 2.04404 18.7182 2.04404 18.7624C2.04404 18.8066 2.04404 18.8066 2.08809 18.8508C2.08809 18.8508 2.13213 18.895 2.17617 18.895H2.22021C2.3083 18.895 2.39638 18.895 2.48447 18.8508L2.66064 18.8066C3.4534 18.674 4.15809 18.232 4.64255 17.5691C5.08298 16.9503 5.39128 16.1989 5.69957 15.4033C5.78766 15.1823 5.87574 14.7403 5.96383 14.5193C5.96383 14.5193 6.00787 14.4751 6.05192 14.4751C6.05192 14.4751 6.09596 14.4751 6.09596 14.5193L6.18404 14.6077C6.27213 14.7845 6.31617 14.9613 6.27213 15.1381V15.4033H6.36021C6.58043 15.4033 6.7566 15.3591 6.88872 15.3591C6.97681 15.3591 7.10894 15.3591 7.19702 15.4033C7.19702 15.4475 7.24106 15.4475 7.24106 15.4917C7.28511 15.6685 7.32915 15.8453 7.32915 16.0221V16.1105H7.41723C7.63745 16.0663 7.85766 15.9779 8.03383 15.9779C8.12192 15.9779 8.21 16.0221 8.29809 16.0663C8.38617 16.1105 8.43021 16.1989 8.43021 16.2431C8.47426 16.3757 8.5183 16.4641 8.56234 16.5967C8.56234 16.5967 8.56234 16.6851 8.60638 16.6851C8.65043 16.6851 8.65043 16.6409 8.69447 16.6409C8.78255 16.5967 8.91468 16.5525 9.04681 16.5525C9.13489 16.5525 9.17894 16.5525 9.26702 16.5967H9.31106C9.35511 16.6409 9.35511 16.6851 9.39915 16.7293C9.39915 16.8177 9.35511 16.9061 9.31106 16.9945C9.04681 17.6133 8.29809 18.5414 7.68149 18.895V19.0276L7.72553 19.0718C7.81362 19.116 7.9017 19.116 7.98979 19.116H8.34213C9.44319 18.9392 10.5443 18.1878 11.337 17.2597C12.6143 17.6133 13.8034 17.7017 15.0806 17.8785C15.0806 17.9227 15.1247 17.9669 15.1247 18.0111C15.1247 18.2762 14.9045 18.6298 14.6402 18.9392C14.42 19.2044 14.1557 19.4696 13.8474 19.6906C13.8034 19.7348 13.7594 19.779 13.7594 19.8232V19.9116L13.8034 19.9558C13.8474 20 13.8915 20 13.9796 20H14.5521C14.8604 19.9558 15.1687 19.8674 15.433 19.6906C15.9174 19.4254 16.3138 19.0718 16.6221 18.5856C16.7543 18.3204 16.8864 18.0552 16.9745 17.7901C18.2517 17.6133 19.4849 17.2155 20.4979 16.5967C21.5989 15.8895 22.3917 14.8287 22.656 13.547V13.5028L22.6119 13.4586C22.3917 13.326 22.1715 13.1934 21.9953 13.0608C21.9513 13.0166 21.8632 12.9724 21.8191 12.884C22.0394 12.663 22.3477 12.4862 22.656 12.3978H22.7V12.3536C22.656 10.9392 21.9513 9.92265 21.0704 9.17127Z" fill="#b7b7b7" stroke="#b7b7b7" stroke-miterlimit="10" stroke-linecap="round" stroke-linejoin="round"/>
</svg>