<svg class="icon-heart" width="16" height="14" viewBox="0 0 16 14" fill="none" xmlns="http://www.w3.org/2000/svg">
  <path d="M8 12.5C8 12.5 1.75 9.00001 1.75 4.75001C1.75 3.99868 2.01031 3.27057 2.48664 2.68954C2.96297 2.10851 3.62589 1.71046 4.36262 1.56312C5.09935 1.41577 5.86438 1.52823 6.52754 1.88136C7.1907 2.23449 7.71103 2.80648 8 3.50001C8.28897 2.80648 8.8093 2.23449 9.47246 1.88136C10.1356 1.52823 10.9006 1.41577 11.6374 1.56312C12.3741 1.71046 13.037 2.10851 13.5134 2.68954C13.9897 3.27057 14.25 3.99868 14.25 4.75001C14.25 9.00001 8 12.5 8 12.5Z" stroke="#1C59A8" stroke-width="2" stroke-linecap="round" stroke-linejoin="round"/>
</svg>