<svg class="icon-instagram" width="32" height="33" viewBox="0 0 32 33" fill="none" xmlns="http://www.w3.org/2000/svg">
  <path d="M16 19.3659C14.5 19.3659 13.2 18.1659 13.2 16.5659C13.2 15.0659 14.4 13.7659 16 13.7659C17.5 13.7659 18.8 14.9659 18.8 16.5659C18.8 18.0659 17.5 19.3659 16 19.3659Z" fill="#1C59A8"/>
  <path fill-rule="evenodd" clip-rule="evenodd" d="M19.4 9.76591H12.6C11.8 9.86592 11.4 9.96591 11.1 10.0659C10.7 10.1659 10.4 10.3659 10.1 10.6659C9.86261 10.9033 9.75045 11.1407 9.61489 11.4276C9.57916 11.5032 9.5417 11.5825 9.5 11.6659C9.48453 11.7123 9.46667 11.7611 9.44752 11.8134C9.34291 12.0992 9.2 12.4897 9.2 13.1659V19.9659C9.3 20.7659 9.4 21.1659 9.5 21.4659C9.6 21.8659 9.8 22.1659 10.1 22.4659C10.3374 22.7033 10.5748 22.8155 10.8617 22.951C10.9374 22.9868 11.0165 23.0242 11.1 23.0659C11.1464 23.0814 11.1952 23.0992 11.2475 23.1184C11.5333 23.223 11.9238 23.3659 12.6 23.3659H19.4C20.2 23.2659 20.6 23.1659 20.9 23.0659C21.3 22.9659 21.6 22.7659 21.9 22.4659C22.1374 22.2285 22.2495 21.9911 22.3851 21.7042C22.4209 21.6285 22.4583 21.5494 22.5 21.4659C22.5155 21.4195 22.5333 21.3707 22.5525 21.3184C22.6571 21.0326 22.8 20.6422 22.8 19.9659V13.1659C22.7 12.3659 22.6 11.9659 22.5 11.6659C22.4 11.2659 22.2 10.9659 21.9 10.6659C21.6626 10.4285 21.4252 10.3164 21.1383 10.1808C21.0627 10.1451 20.9833 10.1076 20.9 10.0659C20.8536 10.0504 20.8048 10.0326 20.7525 10.0134C20.4667 9.90882 20.0762 9.76591 19.4 9.76591ZM16 12.2659C13.6 12.2659 11.7 14.1659 11.7 16.5659C11.7 18.9659 13.6 20.8659 16 20.8659C18.4 20.8659 20.3 18.9659 20.3 16.5659C20.3 14.1659 18.4 12.2659 16 12.2659ZM21.4 12.1659C21.4 12.7182 20.9523 13.1659 20.4 13.1659C19.8477 13.1659 19.4 12.7182 19.4 12.1659C19.4 11.6136 19.8477 11.1659 20.4 11.1659C20.9523 11.1659 21.4 11.6136 21.4 12.1659Z" fill="#1C59A8"/>
  <path fill-rule="evenodd" clip-rule="evenodd" d="M0 16.5659C0 7.72936 7.16344 0.565918 16 0.565918C24.8366 0.565918 32 7.72936 32 16.5659C32 25.4025 24.8366 32.5659 16 32.5659C7.16344 32.5659 0 25.4025 0 16.5659ZM12.6 8.26591H19.4C20.3 8.36591 20.9 8.46592 21.4 8.66592C22 8.96592 22.4 9.16592 22.9 9.66592C23.4 10.1659 23.7 10.6659 23.9 11.1659C24.1 11.6659 24.3 12.2659 24.3 13.1659V19.9659C24.2 20.8659 24.1 21.4659 23.9 21.9659C23.6 22.5659 23.4 22.9659 22.9 23.4659C22.4 23.9659 21.9 24.2659 21.4 24.4659C20.9 24.6659 20.3 24.8659 19.4 24.8659H12.6C11.7 24.7659 11.1 24.6659 10.6 24.4659C10 24.1659 9.6 23.9659 9.1 23.4659C8.6 22.9659 8.3 22.4659 8.1 21.9659C7.9 21.4659 7.7 20.8659 7.7 19.9659V13.1659C7.8 12.2659 7.9 11.6659 8.1 11.1659C8.4 10.5659 8.6 10.1659 9.1 9.66592C9.6 9.16592 10.1 8.86592 10.6 8.66592C11.1 8.46592 11.7 8.26591 12.6 8.26591Z" fill="#1C59A8"/>
</svg>