<svg class="icon-mobile-tote" width="27" height="25" viewBox="0 0 27 25" fill="none" xmlns="http://www.w3.org/2000/svg">
  <path d="M19.575 20.2617H4.425C4.24045 20.2609 4.06254 20.1928 3.92451 20.0703C3.78648 19.9478 3.69778 19.7792 3.675 19.5961L2.34375 7.59609C2.33191 7.49154 2.34221 7.38566 2.37396 7.28535C2.40572 7.18503 2.45823 7.09252 2.52808 7.01382C2.59794 6.93513 2.68357 6.87201 2.77941 6.82858C2.87525 6.78515 2.97916 6.76237 3.08438 6.76172H20.9156C21.0209 6.76237 21.1248 6.78515 21.2206 6.82858C21.3164 6.87201 21.4021 6.93513 21.4719 7.01382C21.5418 7.09252 21.5943 7.18503 21.626 7.28535C21.6578 7.38566 21.6681 7.49154 21.6563 7.59609L20.325 19.5961C20.3022 19.7792 20.2135 19.9478 20.0755 20.0703C19.9375 20.1928 19.7596 20.2609 19.575 20.2617V20.2617Z" stroke="#313133" stroke-width="2" stroke-linecap="round" stroke-linejoin="round"/>
  <path d="M8.25 9.76172V6.76172C8.25 5.76716 8.64509 4.81333 9.34835 4.11007C10.0516 3.40681 11.0054 3.01172 12 3.01172C12.9946 3.01172 13.9484 3.40681 14.6517 4.11007C15.3549 4.81333 15.75 5.76716 15.75 6.76172V9.76172" stroke="#313133" stroke-width="2" stroke-linecap="round" stroke-linejoin="round"/>
  <circle cx="22.5" cy="6.76172" r="4.5" fill="#FF8671"/>
</svg>