<svg width="32" height="33" viewBox="0 0 32 33" fill="none" xmlns="http://www.w3.org/2000/svg">
<path fill-rule="evenodd" clip-rule="evenodd" d="M0 16.5659C0 7.72936 7.16344 0.565918 16 0.565918C24.8366 0.565918 32 7.72936 32 16.5659C32 25.4025 24.8366 32.5659 16 32.5659C7.16344 32.5659 0 25.4025 0 16.5659ZM8 16.5659C8 12.1659 11.6 8.56592 16 8.56592C20.4 8.56592 24 12.1659 23.9 16.1659C23.9 20.5659 20.3 24.1659 15.9 24.1659C15.1 24.1659 14.3 24.0659 13.6 23.8659C13.9 23.3659 14.2 22.7659 14.4 22.1659C14.5 21.7659 15 19.9659 15 19.9659C15.3 20.4659 16.1 20.9659 17 20.9659C19.6 20.9659 21.3 18.5659 21.3 15.4659C21.3 13.0659 19.3 10.8659 16.2 10.8659C12.4 10.8659 10.5 13.5659 10.5 15.8659C10.5 17.2659 11 18.4659 12.1 18.9659C12.3 19.0659 12.4 18.9659 12.5 18.7659C12.6 18.6659 12.7 18.2659 12.7 18.1659C12.7707 18.0245 12.7414 17.9831 12.6828 17.9002C12.6586 17.8659 12.6293 17.8245 12.6 17.7659C12.3 17.3659 12.1 16.8659 12.1 16.1659C12.1 14.1659 13.6 12.3659 16 12.3659C18.1 12.3659 19.3 13.6659 19.3 15.4659C19.3 17.8659 18.3 19.7659 16.8 19.7659C15.9 19.7659 15.3 19.0659 15.5 18.2659C15.5835 17.8485 15.7192 17.4136 15.8491 16.9977C16.0303 16.4173 16.2 15.8737 16.2 15.4659C16.2 14.7659 15.8 14.2659 15.1 14.2659C14.3 14.2659 13.6 15.1659 13.6 16.3659C13.6 17.1659 13.9 17.6659 13.9 17.6659C13.9 17.6659 13.1 21.3659 12.9 22.0659C12.8 22.6659 12.8 23.2658 12.8 23.8658C10 22.6658 8 19.8659 8 16.5659Z" fill="#1C59A8"/>
</svg>
