<svg class="icon-shipjack-circle" width="32" height="32" viewBox="0 0 32 32" fill="none" xmlns="http://www.w3.org/2000/svg">
  <circle cx="16" cy="16" r="16" fill="#1C59A8"/>
  <path d="M24.2706 12.7712C23.4338 12.0641 22.5089 11.5337 21.4519 11.1801H21.4079H21.3638C21.1876 10.6055 20.9234 9.94252 20.6591 9.45633C20.3949 9.01434 20.0866 8.61655 19.7783 8.26296C19.6462 8.13036 19.514 7.99777 19.3379 7.86517C19.2498 7.77677 19.1176 7.68837 19.0296 7.64417C18.9415 7.59998 18.8534 7.59998 18.7213 7.59998C18.6332 7.59998 18.5891 7.59998 18.5451 7.64417L18.413 7.77677C18.3689 7.90937 18.3249 8.04196 18.3249 8.17456C18.3249 8.39556 18.3689 8.61655 18.3689 8.88174C18.3689 9.14694 18.3249 9.41213 18.2368 9.63312C18.1487 9.80992 17.9725 9.98672 17.8404 10.1635C17.5762 10.3845 17.2238 10.5613 16.9155 10.6497C16.7834 10.6939 16.5632 10.6939 16.431 10.7381C16.2549 10.7823 16.0347 10.7381 15.7704 10.8265C15.7264 10.8265 15.6823 10.8707 15.6823 10.9149C15.6383 10.9591 15.6383 11.0033 15.6383 11.0475V11.0917C15.374 11.1359 15.2859 11.1801 15.1098 11.2243L15.0217 11.2685L14.9336 11.1801C14.7134 10.7381 14.361 10.4287 13.9206 10.1635C13.5242 9.89832 13.0398 9.76572 12.5553 9.76572C12.4672 9.76572 12.3791 9.76572 12.247 9.80992C12.203 9.80992 12.203 9.80992 12.1589 9.85412H12.1149C12.1149 9.85412 12.0708 9.85412 12.0708 9.89832V9.98672L12.1149 10.0309C13.2159 10.7381 13.4802 11.2685 13.4802 11.5337C13.4802 11.6221 13.4362 11.6663 13.4362 11.7547H13.3921C13.26 11.7989 13.1279 11.7989 12.9957 11.7989H12.6874C12.6434 11.7989 12.6434 11.7989 12.5993 11.8431C12.5553 11.8873 12.5113 11.9315 12.5113 11.9757C12.4672 12.0641 12.4232 12.1967 12.3791 12.2851C12.3351 12.3735 12.291 12.4177 12.247 12.4619C12.247 12.5061 12.203 12.5061 12.203 12.5503C12.1589 12.5945 12.1149 12.5945 12.0708 12.5945H11.8506C11.6745 12.5945 11.4542 12.5503 11.3221 12.5503H11.234C11.234 12.5503 11.19 12.5503 11.19 12.5945L11.1459 12.6386V12.6828C11.1019 12.8154 11.1019 12.948 11.0579 13.0806C11.0138 13.2574 10.9257 13.39 10.7936 13.4784C10.6615 13.5226 10.4853 13.5668 10.3091 13.5668H9.86871C9.86871 13.5668 9.82466 13.5668 9.82466 13.611C9.82466 13.6552 9.78062 13.6552 9.78062 13.6994C9.73658 13.7878 9.73658 13.9204 9.69254 14.053C9.69254 14.0972 9.64849 14.1856 9.64849 14.2298C9.64849 14.274 9.60445 14.274 9.60445 14.3182C9.42828 14.495 9.3402 14.5392 9.29615 14.5834C9.29615 13.8762 8.81168 12.9038 8.19509 11.9757C7.53445 11.0917 6.6536 10.2519 5.81679 9.98672C5.72871 9.85412 5.59658 9.85412 5.50849 9.85412C5.46445 9.85412 5.42041 9.85412 5.37637 9.89832C5.33232 9.89832 5.33232 9.94252 5.33232 9.94252C5.33232 9.98672 5.28828 9.98672 5.28828 10.0309C5.28828 10.1193 5.37637 10.2519 5.46445 10.2961C5.68466 10.5171 5.94892 10.8265 6.12509 11.0917C6.6536 11.9757 6.9619 12.8154 7.09402 14.5392C7.09402 14.8928 7.13807 15.2022 7.22615 15.5558C7.31424 15.7326 7.40232 15.9094 7.44637 16.042C7.49041 16.1304 7.53445 16.2188 7.53445 16.3072C7.44637 16.5282 7.2702 16.7933 7.22615 17.1911C7.22615 17.6331 7.18211 18.0751 7.04998 18.5171C6.69764 19.8873 6.08105 21.169 5.2002 22.2298C5.24424 22.274 5.24424 22.3182 5.24424 22.3624C5.24424 22.4066 5.24424 22.4066 5.28828 22.4508C5.28828 22.4508 5.33232 22.495 5.37637 22.495H5.42041C5.50849 22.495 5.59658 22.495 5.68466 22.4508L5.86083 22.4066C6.6536 22.274 7.35828 21.832 7.84275 21.169C8.28317 20.5503 8.59147 19.7989 8.89977 19.0033C8.98785 18.7823 9.07594 18.3403 9.16402 18.1193C9.16402 18.1193 9.20807 18.0751 9.25211 18.0751C9.25211 18.0751 9.29615 18.0751 9.29615 18.1193L9.38424 18.2077C9.47232 18.3845 9.51637 18.5613 9.47232 18.7381V19.0033H9.56041C9.78062 19.0033 9.95679 18.9591 10.0889 18.9591C10.177 18.9591 10.3091 18.9591 10.3972 19.0033C10.3972 19.0475 10.4413 19.0475 10.4413 19.0917C10.4853 19.2685 10.5293 19.4453 10.5293 19.6221V19.7105H10.6174C10.8376 19.6663 11.0579 19.5779 11.234 19.5779C11.3221 19.5779 11.4102 19.6221 11.4983 19.6663C11.5864 19.7105 11.6304 19.7989 11.6304 19.8431C11.6745 19.9757 11.7185 20.0641 11.7625 20.1967C11.7625 20.1967 11.7625 20.2851 11.8066 20.2851C11.8506 20.2851 11.8506 20.2409 11.8947 20.2409C11.9827 20.1967 12.1149 20.1525 12.247 20.1525C12.3351 20.1525 12.3791 20.1525 12.4672 20.1967H12.5113C12.5553 20.2409 12.5553 20.2851 12.5993 20.3293C12.5993 20.4177 12.5553 20.5061 12.5113 20.5945C12.247 21.2132 11.4983 22.1414 10.8817 22.495V22.6276L10.9257 22.6718C11.0138 22.716 11.1019 22.716 11.19 22.716H11.5423C12.6434 22.5392 13.7445 21.7878 14.5372 20.8596C15.8145 21.2132 17.0036 21.3016 18.2808 21.4784C18.2808 21.5226 18.3249 21.5668 18.3249 21.611C18.3249 21.8762 18.1047 22.2298 17.8404 22.5392C17.6202 22.8044 17.3559 23.0696 17.0476 23.2906C17.0036 23.3348 16.9596 23.379 16.9596 23.4232V23.5116L17.0036 23.5558C17.0476 23.6 17.0917 23.6 17.1798 23.6H17.7523C18.0606 23.5558 18.3689 23.4674 18.6332 23.2906C19.1176 23.0254 19.514 22.6718 19.8223 22.1856C19.9544 21.9204 20.0866 21.6552 20.1747 21.39C21.4519 21.2132 22.6851 20.8154 23.6981 20.1967C24.7991 19.4895 25.5919 18.4287 25.8562 17.1469V17.1027L25.8121 17.0585C25.5919 16.9259 25.3717 16.7933 25.1955 16.6607C25.1515 16.6166 25.0634 16.5724 25.0193 16.484C25.2396 16.263 25.5479 16.0862 25.8562 15.9978H25.9002V15.9536C25.8562 14.5392 25.1515 13.5226 24.2706 12.7712V12.7712Z" fill="white"/>
</svg>