<svg width="16" height="17" viewBox="0 0 16 17" fill="none" xmlns="http://www.w3.org/2000/svg">
  <path d="M15.3844 8.82375L9.17688 2.61626C9.06114 2.49976 8.92343 2.40739 8.77173 2.34452C8.62002 2.28165 8.45735 2.24953 8.29313 2.25001H2.50001C2.30109 2.25001 2.11033 2.32902 1.96968 2.46968C1.82902 2.61033 1.75001 2.80109 1.75001 3.00001V8.79313C1.74953 8.95735 1.78165 9.12002 1.84452 9.27173C1.90739 9.42343 1.99976 9.56114 2.11626 9.67688L8.32375 15.8844C8.55816 16.1187 8.87605 16.2504 9.20751 16.2504C9.53896 16.2504 9.85685 16.1187 10.0913 15.8844L15.3844 10.5913C15.6187 10.3568 15.7504 10.039 15.7504 9.70751C15.7504 9.37605 15.6187 9.05816 15.3844 8.82375ZM9.20751 14.6469L3.25001 8.68751V3.75001H8.18751L14.145 9.70751L9.20751 14.6469ZM6.25001 5.75001C6.25001 5.94779 6.19136 6.14113 6.08147 6.30558C5.97159 6.47002 5.81541 6.5982 5.63269 6.67388C5.44996 6.74957 5.2489 6.76938 5.05491 6.73079C4.86093 6.69221 4.68275 6.59696 4.5429 6.45711C4.40305 6.31726 4.30781 6.13908 4.26922 5.9451C4.23063 5.75111 4.25044 5.55005 4.32613 5.36732C4.40181 5.1846 4.52999 5.02842 4.69444 4.91854C4.85888 4.80865 5.05222 4.75001 5.25001 4.75001C5.51522 4.75001 5.76958 4.85536 5.95711 5.0429C6.14465 5.23044 6.25001 5.48479 6.25001 5.75001Z" fill="#CF1F00"/>
</svg>